<mxfile host="65bd71144e">
    <diagram id="zAJiVluDIX9Axxgpk72t" name="Page-1">
        <mxGraphModel dx="1794" dy="803" grid="1" gridSize="10" guides="1" tooltips="1" connect="1" arrows="1" fold="1" page="1" pageScale="1" pageWidth="827" pageHeight="1169" math="0" shadow="0">
            <root>

                <mxCell id="33" value="instrument_id" style="ellipse;whiteSpace=wrap;html=1;fontSize=14;" parent="1" vertex="1">
                    <mxGeometry x="560" y="602.5" width="115" height="40" as="geometry"/>
                </mxCell>
                <mxCell id="34" value="1" style="ellipse;whiteSpace=wrap;html=1;fontSize=14;" parent="1" vertex="1">
                    <mxGeometry x="890" y="585" width="25" height="25" as="geometry"/>
                </mxCell>
                <mxCell id="37" value="-1" style="ellipse;whiteSpace=wrap;html=1;fontSize=14;" parent="1" vertex="1">
                    <mxGeometry x="890" y="610" width="25" height="25" as="geometry"/>
                </mxCell>
                <mxCell id="38" value="0" style="ellipse;whiteSpace=wrap;html=1;fontSize=14;" parent="1" vertex="1">
                    <mxGeometry x="890" y="635" width="25" height="25" as="geometry"/>
                </mxCell>
                <mxCell id="39" value="Buy Q" style="rounded=1;whiteSpace=wrap;html=1;fontSize=14;" parent="1" vertex="1">
                    <mxGeometry x="915" y="587.5" width="50" height="20" as="geometry"/>
                </mxCell>
                <mxCell id="41" value="Sell Q" style="rounded=1;whiteSpace=wrap;html=1;fontSize=14;" parent="1" vertex="1">
                    <mxGeometry x="915" y="612.5" width="50" height="20" as="geometry"/>
                </mxCell>
                <mxCell id="42" value="No Q" style="rounded=1;whiteSpace=wrap;html=1;fontSize=14;" parent="1" vertex="1">
                    <mxGeometry x="915" y="637.5" width="50" height="20" as="geometry"/>
                </mxCell>
            </root>
        </mxGraphModel>
    </diagram>
</mxfile>